<svg width="1440" height="900" viewBox="0 0 1440 900" fill="none" xmlns="http://www.w3.org/2000/svg">
<rect width="1440" height="900" fill="white"/>
<rect x="510" y="137" width="409" height="22" rx="11" fill="#C4C4C4"/>
<rect x="419" y="187" width="591" height="22" rx="11" fill="#C4C4C4"/>
<rect x="135" y="508" width="250" height="14" rx="7" fill="#E2E2E2"/>
<rect x="135" y="552" width="193" height="14" rx="7" fill="#E2E2E2"/>
<rect x="135" y="596" width="193" height="14" rx="7" fill="#E2E2E2"/>
<rect x="135" y="309" width="270" height="156" rx="10" fill="#EEEEEE"/>
<rect x="585" y="508" width="250" height="14" rx="7" fill="#E2E2E2"/>
<rect x="585" y="552" width="193" height="14" rx="7" fill="#E2E2E2"/>
<rect x="585" y="596" width="193" height="14" rx="7" fill="#E2E2E2"/>
<rect x="585" y="309" width="270" height="156" rx="10" fill="#EEEEEE"/>
<rect x="1035" y="508" width="250" height="14" rx="7" fill="#E2E2E2"/>
<rect x="1035" y="552" width="193" height="14" rx="7" fill="#E2E2E2"/>
<rect x="1035" y="596" width="193" height="14" rx="7" fill="#E2E2E2"/>
<rect x="1035" y="309" width="270" height="156" rx="10" fill="#EEEEEE"/>
<rect x="627" y="707" width="187" height="56" rx="10" fill="#C4C4C4"/>
<rect x="666" y="730" width="108" height="10" rx="5" fill="white"/>
</svg>
