<svg width="1440" height="900" viewBox="0 0 1440 900" fill="none" xmlns="http://www.w3.org/2000/svg">
<rect width="1440" height="900" fill="white"/>
<circle cx="97" cy="81" r="30" fill="#C4C4C4"/>
<rect x="928" y="76" width="108" height="10" rx="5" fill="#C4C4C4"/>
<rect x="67" y="294" width="409" height="36" rx="18" fill="#C4C4C4"/>
<rect x="67" y="364" width="591" height="33" rx="16.5" fill="#C4C4C4"/>
<rect x="67" y="455" width="474" height="12" rx="6" fill="#E2E2E2"/>
<rect x="67" y="498" width="409" height="12" rx="6" fill="#E2E2E2"/>
<rect x="67" y="541" width="409" height="12" rx="6" fill="#E2E2E2"/>
<rect x="1086" y="76" width="108" height="10" rx="5" fill="#C4C4C4"/>
<rect x="1244" y="76" width="108" height="10" rx="5" fill="#C4C4C4"/>
<rect x="67" y="603" width="187" height="56" rx="10" fill="#C4C4C4"/>
<rect x="106" y="626" width="108" height="10" rx="5" fill="white"/>
<rect x="847" y="231" width="505" height="438" rx="20" fill="#EEEEEE"/>
</svg>
