<svg width="1440" height="900" viewBox="0 0 1440 900" fill="none" xmlns="http://www.w3.org/2000/svg">
<g clip-path="url(#clip0)">
<rect width="1440" height="900" fill="#EEEEEE"/>
<g filter="url(#filter0_d)">
<rect width="1440" height="131" fill="white"/>
</g>
<rect x="1197.79" y="37" width="170.206" height="56" rx="10" fill="#C4C4C4"/>
<rect x="1233.29" y="60" width="98.301" height="10" rx="5" fill="white"/>
<rect x="993" y="37" width="170.206" height="56" rx="10" fill="#EEEEEE"/>
<rect x="1028.5" y="60" width="98.301" height="10" rx="5" fill="#C4C4C4"/>
<path d="M72.9482 76H76.2295V68.7783H80.8145C84.96 68.7783 87.8311 65.9512 87.8311 61.8203V61.791C87.8311 57.6455 84.96 54.8623 80.8145 54.8623H72.9482V76ZM79.9941 57.6309C82.8506 57.6309 84.4912 59.1689 84.4912 61.8057V61.835C84.4912 64.4863 82.8506 66.0244 79.9941 66.0244H76.2295V57.6309H79.9941ZM93.6172 76.2783C95.6533 76.2783 97.4404 75.2236 98.334 73.5684H98.3926V76H101.571V65.3799C101.571 62.2891 99.1836 60.2969 95.4189 60.2969C91.625 60.2969 89.3252 62.333 89.1055 64.9844L89.0908 65.1455H92.0791L92.1084 65.0137C92.3721 63.7832 93.5 62.9189 95.3311 62.9189C97.2939 62.9189 98.3926 63.9443 98.3926 65.6436V66.8008L94.2031 67.0498C90.5557 67.2695 88.4756 68.9102 88.4756 71.5908V71.6201C88.4756 74.3887 90.541 76.2783 93.6172 76.2783ZM91.6689 71.5469V71.5176C91.6689 70.2139 92.7236 69.3789 94.6279 69.2617L98.3926 69.0273V70.2285C98.3926 72.2354 96.708 73.7441 94.4814 73.7441C92.7822 73.7441 91.6689 72.8945 91.6689 71.5469ZM111.4 81.4346C115.751 81.4346 118.476 79.0908 118.476 75.5752V60.5898H115.297V63.2119H115.224C114.315 61.4688 112.616 60.2969 110.448 60.2969C106.537 60.2969 103.959 63.3291 103.959 68.1631V68.1777C103.959 72.9824 106.508 76.0146 110.375 76.0146C112.587 76.0146 114.345 74.9453 115.224 73.2754H115.297V75.3848C115.297 77.5381 113.905 78.8857 111.386 78.8857C109.408 78.8857 108.075 78.2119 107.65 77.2305L107.592 77.1133H104.457L104.472 77.2451C104.94 79.6035 107.445 81.4346 111.4 81.4346ZM111.269 73.4365C108.764 73.4365 107.196 71.4443 107.196 68.2217V68.207C107.196 65.0283 108.764 63.0068 111.269 63.0068C113.671 63.0068 115.297 65.043 115.297 68.207V68.2217C115.297 71.4004 113.686 73.4365 111.269 73.4365ZM128.188 76.3076C131.923 76.3076 134.296 74.0811 134.794 71.6348L134.823 71.4736H131.82L131.776 71.5908C131.381 72.748 130.136 73.7148 128.261 73.7148C125.741 73.7148 124.145 72.0156 124.086 69.1006H134.999V68.0312C134.999 63.4023 132.348 60.2969 128.026 60.2969C123.705 60.2969 120.922 63.5195 120.922 68.3389V68.3535C120.922 73.2168 123.661 76.3076 128.188 76.3076ZM128.041 62.8896C130.106 62.8896 131.601 64.1934 131.864 66.8594H124.13C124.408 64.2812 125.99 62.8896 128.041 62.8896ZM149.179 76H152.46V57.6895H158.92V54.8623H142.704V57.6895H149.179V76ZM162.23 58.2168C163.271 58.2168 164.076 57.3965 164.076 56.4004C164.076 55.3896 163.271 54.5693 162.23 54.5693C161.205 54.5693 160.385 55.3896 160.385 56.4004C160.385 57.3965 161.205 58.2168 162.23 58.2168ZM160.648 76H163.812V60.5898H160.648V76ZM172.484 76.3076C173.129 76.3076 173.729 76.2344 174.096 76.1758V73.7295C173.861 73.7588 173.583 73.7881 173.246 73.7881C171.913 73.7881 171.21 73.3193 171.21 71.752V63.1094H174.096V60.5898H171.21V56.5762H167.973V60.5898H165.761V63.1094H167.973V71.9424C167.973 75.0186 169.438 76.3076 172.484 76.3076ZM176.835 76H179.999V54.8623H176.835V76ZM189.828 76.3076C193.563 76.3076 195.937 74.0811 196.435 71.6348L196.464 71.4736H193.461L193.417 71.5908C193.021 72.748 191.776 73.7148 189.901 73.7148C187.382 73.7148 185.785 72.0156 185.727 69.1006H196.64V68.0312C196.64 63.4023 193.988 60.2969 189.667 60.2969C185.346 60.2969 182.562 63.5195 182.562 68.3389V68.3535C182.562 73.2168 185.302 76.3076 189.828 76.3076ZM189.682 62.8896C191.747 62.8896 193.241 64.1934 193.505 66.8594H185.771C186.049 64.2812 187.631 62.8896 189.682 62.8896Z" fill="black"/>
</g>
<defs>
<filter id="filter0_d" x="-8" y="-4" width="1456" height="147" filterUnits="userSpaceOnUse" color-interpolation-filters="sRGB">
<feFlood flood-opacity="0" result="BackgroundImageFix"/>
<feColorMatrix in="SourceAlpha" type="matrix" values="0 0 0 0 0 0 0 0 0 0 0 0 0 0 0 0 0 0 127 0"/>
<feOffset dy="4"/>
<feGaussianBlur stdDeviation="4"/>
<feColorMatrix type="matrix" values="0 0 0 0 0.768627 0 0 0 0 0.768627 0 0 0 0 0.768627 0 0 0 1 0"/>
<feBlend mode="normal" in2="BackgroundImageFix" result="effect1_dropShadow"/>
<feBlend mode="normal" in="SourceGraphic" in2="effect1_dropShadow" result="shape"/>
</filter>
<clipPath id="clip0">
<rect width="1440" height="900" fill="white"/>
</clipPath>
</defs>
</svg>
