<?xml version="1.0"?>
<svg xmlns="http://www.w3.org/2000/svg" xmlns:xlink="http://www.w3.org/1999/xlink" xmlns:svgjs="http://svgjs.com/svgjs" version="1.1" width="512" height="512" x="0" y="0" viewBox="0 0 305.608 305.608" style="enable-background:new 0 0 512 512" xml:space="preserve" class=""><g>
<path xmlns="http://www.w3.org/2000/svg" d="M298.108,112.293h-94.081V54.553c0-4.142-3.358-7.5-7.5-7.5H7.5c-4.142,0-7.5,3.358-7.5,7.5v133.065  c0,4.142,3.358,7.5,7.5,7.5h47.996c4.142,0,7.5-3.358,7.5-7.5c0-4.142-3.358-7.5-7.5-7.5H15V62.053h174.027v50.239h-34.939  c-4.142,0-7.5,3.358-7.5,7.5v60.326H116.01c-1.527,0-3.018,0.466-4.273,1.337l-60.514,41.95c-3.404,2.36-4.251,7.032-1.891,10.436  c1.456,2.101,3.794,3.227,6.17,3.227c1.474,0,2.963-0.433,4.266-1.337l58.586-40.614h28.234v24.473c0,4.142,3.358,7.5,7.5,7.5  h60.292l43.458,30.126c1.303,0.904,2.792,1.337,4.266,1.337c2.376,0,4.714-1.127,6.17-3.228c2.36-3.404,1.514-8.077-1.891-10.437  l-45.386-31.463c-1.255-0.87-2.746-1.336-4.273-1.336h-55.138v-84.799h129.02v84.799h-28.496c-4.142,0-7.5,3.358-7.5,7.5  c0,4.142,3.358,7.5,7.5,7.5h35.996c4.142,0,7.5-3.358,7.5-7.5v-99.799C305.608,115.651,302.25,112.293,298.108,112.293z" fill="#007bff" data-original="#000000" style=""/>
<g xmlns="http://www.w3.org/2000/svg">
</g>
<g xmlns="http://www.w3.org/2000/svg">
</g>
<g xmlns="http://www.w3.org/2000/svg">
</g>
<g xmlns="http://www.w3.org/2000/svg">
</g>
<g xmlns="http://www.w3.org/2000/svg">
</g>
<g xmlns="http://www.w3.org/2000/svg">
</g>
<g xmlns="http://www.w3.org/2000/svg">
</g>
<g xmlns="http://www.w3.org/2000/svg">
</g>
<g xmlns="http://www.w3.org/2000/svg">
</g>
<g xmlns="http://www.w3.org/2000/svg">
</g>
<g xmlns="http://www.w3.org/2000/svg">
</g>
<g xmlns="http://www.w3.org/2000/svg">
</g>
<g xmlns="http://www.w3.org/2000/svg">
</g>
<g xmlns="http://www.w3.org/2000/svg">
</g>
<g xmlns="http://www.w3.org/2000/svg">
</g>
</g></svg>
