<?xml version="1.0"?>
<svg xmlns="http://www.w3.org/2000/svg" xmlns:xlink="http://www.w3.org/1999/xlink" xmlns:svgjs="http://svgjs.com/svgjs" version="1.1" width="512" height="512" x="0" y="0" viewBox="0 0 241.061 241.061" style="enable-background:new 0 0 512 512" xml:space="preserve" class=""><g>
<g xmlns="http://www.w3.org/2000/svg">
	<path d="M198.602,70.402l-78.063,68.789l-78.08-68.79c-3.109-2.739-7.848-2.438-10.586,0.669c-2.737,3.108-2.439,7.847,0.67,10.586   l83.039,73.159c1.417,1.248,3.188,1.872,4.958,1.872s3.542-0.624,4.959-1.873l83.022-73.159c3.107-2.738,3.406-7.478,0.668-10.586   C206.449,67.964,201.711,67.664,198.602,70.402z" fill="#007bff" data-original="#000000" style=""/>
	<path d="M218.561,38.529H22.5c-12.406,0-22.5,10.093-22.5,22.5v119.002c0,12.407,10.094,22.5,22.5,22.5h196.061   c12.406,0,22.5-10.093,22.5-22.5V61.029C241.061,48.623,230.967,38.529,218.561,38.529z M226.061,180.031   c0,4.135-3.364,7.5-7.5,7.5H22.5c-4.136,0-7.5-3.365-7.5-7.5V61.029c0-4.135,3.364-7.5,7.5-7.5h196.061c4.136,0,7.5,3.365,7.5,7.5   V180.031z" fill="#007bff" data-original="#000000" style=""/>
</g>
<g xmlns="http://www.w3.org/2000/svg">
</g>
<g xmlns="http://www.w3.org/2000/svg">
</g>
<g xmlns="http://www.w3.org/2000/svg">
</g>
<g xmlns="http://www.w3.org/2000/svg">
</g>
<g xmlns="http://www.w3.org/2000/svg">
</g>
<g xmlns="http://www.w3.org/2000/svg">
</g>
<g xmlns="http://www.w3.org/2000/svg">
</g>
<g xmlns="http://www.w3.org/2000/svg">
</g>
<g xmlns="http://www.w3.org/2000/svg">
</g>
<g xmlns="http://www.w3.org/2000/svg">
</g>
<g xmlns="http://www.w3.org/2000/svg">
</g>
<g xmlns="http://www.w3.org/2000/svg">
</g>
<g xmlns="http://www.w3.org/2000/svg">
</g>
<g xmlns="http://www.w3.org/2000/svg">
</g>
<g xmlns="http://www.w3.org/2000/svg">
</g>
</g></svg>
